<?xml version="1.0" encoding="UTF-8"?>
<svg width="32px" height="32px" viewBox="0 0 32 32" version="1.1" xmlns="http://www.w3.org/2000/svg" xmlns:xlink="http://www.w3.org/1999/xlink">
    <!-- Generator: Sketch 59.1 (86144) - https://sketch.com -->
    <title>Activity</title>
    <desc>Created with Sketch.</desc>
    <g id="Page-1" stroke="none" stroke-width="1" fill="none" fill-rule="evenodd">
        <g id="Activity" fill-rule="nonzero">
            <g id="Group-7">
                <path d="M3.7320048,15.6444444 C1.67417658,15.6444444 0,17.2469323 0,19.2165716 L0,32 L7.46666667,32 L7.46666667,19.2165716 C7.46666667,17.2469323 5.79130916,15.6444444 3.7320048,15.6444444" id="Fill-1" fill="#8CBE82"></path>
                <path d="M15.4668882,8.53333333 C13.408228,8.53333333 11.7333333,10.0485235 11.7333333,11.9109309 L11.7333333,32 L19.2,32 L19.2,11.9109309 C19.2,10.0485235 17.5253268,8.53333333 15.4668882,8.53333333" id="Fill-3" fill="#49773A"></path>
                <path d="M28.269103,0 C26.2081542,0 24.5333333,1.54267801 24.5333333,3.43897984 L24.5333333,32 L32,32 L32,3.43891187 C32,1.54267801 30.3263604,0 28.269103,0" id="Fill-5" fill="#58AA18"></path>
            </g>
        </g>
    </g>
</svg>