<?xml version="1.0" encoding="UTF-8"?>
<svg width="60px" height="60px" viewBox="0 0 60 60" version="1.1" xmlns="http://www.w3.org/2000/svg" xmlns:xlink="http://www.w3.org/1999/xlink">
    <!-- Generator: Sketch 59.1 (86144) - https://sketch.com -->
    <title>1628 - Straight Face</title>
    <desc>Created with Sketch.</desc>
    <g id="Page-1" stroke="none" stroke-width="1" fill="none" fill-rule="evenodd">
        <g id="Artboard" transform="translate(-170.000000, -9.000000)">
            <g id="1628---Straight-Face" transform="translate(161.000000, 0.000000)">
                <path d="M39.0094857,9.75235429 C55.1677714,9.75235429 68.2666286,22.8512114 68.2666286,39.0094971 C68.2666286,55.1677829 55.1677714,68.26664 39.0094857,68.26664 C22.8512,68.26664 9.75234286,55.1677829 9.75234286,39.0094971 C9.75234286,22.8512114 22.8512,9.75235429 39.0094857,9.75235429 Z" id="Path" fill="#F0EC79"></path>
                <g id="_519806216">
                    <rect id="_519806816" x="0" y="0" width="78.0189714" height="78.0189714"></rect>
                    <rect id="_519806648" x="9.75235429" y="9.75235429" width="58.5142857" height="58.5142857"></rect>
                </g>
                <polygon id="Path" fill="#474747" points="24.9905143 48.7618286 53.0285714 48.7618286 53.0285714 51.2 24.9905143 51.2"></polygon>
                <path d="M48.9750857,26.8189714 C50.6582857,26.8189714 52.0227314,28.1834286 52.0227314,29.8666171 C52.0227314,31.5498171 50.6582743,32.9142629 48.9750857,32.9142629 C47.2918857,32.9142629 45.92744,31.5498057 45.92744,29.8666171 C45.92744,28.1834171 47.2918971,26.8189714 48.9750857,26.8189714 Z" id="Path" fill="#474747"></path>
                <path d="M29.0438857,26.8189714 C30.7270857,26.8189714 32.0915314,28.1834286 32.0915314,29.8666171 C32.0915314,31.5498171 30.7270743,32.9142629 29.0438857,32.9142629 C27.3606857,32.9142629 25.99624,31.5498057 25.99624,29.8666171 C25.99624,28.1834171 27.3606971,26.8189714 29.0438857,26.8189714 Z" id="Path" fill="#474747"></path>
            </g>
        </g>
    </g>
</svg>