<?xml version="1.0" encoding="UTF-8"?>
<svg width="61px" height="61px" viewBox="0 0 61 61" version="1.1" xmlns="http://www.w3.org/2000/svg" xmlns:xlink="http://www.w3.org/1999/xlink">
    <!-- Generator: Sketch 59.1 (86144) - https://sketch.com -->
    <title>1618 - Laughing</title>
    <desc>Created with Sketch.</desc>
    <g id="Page-1" stroke="none" stroke-width="1" fill="none" fill-rule="evenodd">
        <g id="Artboard" transform="translate(-10.000000, -9.000000)">
            <g id="1618---Laughing" transform="translate(1.000000, 0.000000)">
                <path d="M39.5032767,9.87580181 C55.8660976,9.87580181 69.1307631,23.1404673 69.1307631,39.5032882 C69.1307631,55.8661092 55.8660976,69.1307747 39.5032767,69.1307747 C23.1404557,69.1307747 9.87579024,55.8661092 9.87579024,39.5032882 C9.87579024,23.1404673 23.1404557,9.87580181 39.5032767,9.87580181 Z" id="Path" fill="#F0EC79"></path>
                <rect id="Rectangle" x="0" y="0" width="79.0065533" height="79.0065533"></rect>
                <path d="M39.5032767,43.1294734 L56.4228861,43.1294734 C56.4228861,43.1294734 56.4228861,43.1294734 56.4228861,43.1294734 C56.4228861,52.4739935 48.8477049,60.0491284 39.5032767,60.0491284 C30.1588022,60.0491284 22.5836673,52.4739472 22.5836673,43.1294734 L39.5032767,43.1294734 L39.5032767,43.1294734 Z" id="Path" fill="#474747"></path>
                <path d="M24.6353707,45.0583146 C25.5816877,52.4270293 31.8770228,58.1203327 39.5032767,58.1203327 C47.1295421,58.1203327 53.4248391,52.4269367 54.3711826,45.0583146 L24.6353707,45.0583146 L24.6353707,45.0583146 Z" id="Path" fill="#FFFFFF"></path>
                <g id="_519822896" transform="translate(22.712477, 23.146474)" fill="#474747" fill-rule="nonzero">
                    <path d="M33.952162,7.20966742 C30.3679653,6.17864709 28.4421671,6.20051704 24.7820152,7.21281133 C26.0609967,3.81989705 32.3527754,3.02148258 33.952162,7.20966742 Z" id="_519798992"></path>
                    <path d="M10.8056882,7.20966742 C7.2214915,6.17864709 5.29569331,6.20051704 1.63554141,7.21281133 C2.91452297,3.81989705 9.20630163,3.02148258 10.8056882,7.20966742 Z" id="_519798992"></path>
                </g>
            </g>
        </g>
    </g>
</svg>