<?xml version="1.0" encoding="UTF-8"?>
<svg width="60px" height="60px" viewBox="0 0 60 60" version="1.1" xmlns="http://www.w3.org/2000/svg" xmlns:xlink="http://www.w3.org/1999/xlink">
    <!-- Generator: Sketch 59.1 (86144) - https://sketch.com -->
    <title>1632 - Confused</title>
    <desc>Created with Sketch.</desc>
    <g id="Page-1" stroke="none" stroke-width="1" fill="none" fill-rule="evenodd">
        <g id="Artboard" transform="translate(-250.000000, -9.000000)">
            <g id="1632---Confused" transform="translate(241.000000, 0.000000)">
                <path d="M39.0094857,9.75235429 C55.1677714,9.75235429 68.2666286,22.8512114 68.2666286,39.0094971 C68.2666286,55.1677829 55.1677714,68.26664 39.0094857,68.26664 C22.8512,68.26664 9.75234286,55.1677829 9.75234286,39.0094971 C9.75234286,22.8512114 22.8512,9.75235429 39.0094857,9.75235429 Z" id="Path" fill="#F0EC79"></path>
                <rect id="Rectangle" x="0" y="0" width="78.0189714" height="78.0189714"></rect>
                <rect id="Rectangle" x="9.75235429" y="9.75235429" width="58.5142857" height="58.5142857"></rect>
                <rect id="Rectangle" x="0" y="0" width="78.0189714" height="78.0189714"></rect>
                <rect id="Rectangle" x="9.75235429" y="9.75235429" width="58.5142857" height="58.5142857"></rect>
                <path d="M27.8238857,55.0790857 C29.5291771,45.7956686 47.116,46.7401829 50.1950857,55.0790857 C42.4571771,49.4834514 34.9457143,48.3991314 27.8238857,55.0790857 Z" id="Path" fill="#474747"></path>
                <g id="_519811904" transform="translate(22.857143, 22.857143)" fill="#474747">
                    <g id="Group" transform="translate(11.428571, 0.000000)">
                        <path d="M14.9267429,5.19725714 C16.3634629,5.19725714 17.5280914,6.36189714 17.5280914,7.79860571 C17.5280914,9.23528 16.3634514,10.3999086 14.9267429,10.3999086 C13.4900686,10.3999086 12.32544,9.23526857 12.32544,7.79860571 C12.32544,6.36188571 13.49008,5.19725714 14.9267429,5.19725714 Z" id="_519811784"></path>
                    </g>
                    <g id="Group">
                        <path d="M5.94925714,5.19725714 C4.51253714,5.19725714 3.34790857,6.36189714 3.34790857,7.79860571 C3.34790857,9.23528 4.51254857,10.3999086 5.94925714,10.3999086 C7.38593143,10.3999086 8.55056,9.23526857 8.55056,7.79860571 C8.55056,6.36188571 7.38592,5.19725714 5.94925714,5.19725714 Z" id="_519811928"></path>
                    </g>
                </g>
            </g>
        </g>
    </g>
</svg>