<?xml version="1.0" encoding="UTF-8"?>
<svg width="61px" height="61px" viewBox="0 0 61 61" version="1.1" xmlns="http://www.w3.org/2000/svg" xmlns:xlink="http://www.w3.org/1999/xlink">
    <!-- Generator: Sketch 59.1 (86144) - https://sketch.com -->
    <title>1632 - Confused</title>
    <desc>Created with Sketch.</desc>
    <g id="Page-1" stroke="none" stroke-width="1" fill="none" fill-rule="evenodd">
        <g id="Artboard" transform="translate(-330.000000, -9.000000)">
            <g id="1632---Confused" transform="translate(321.000000, 0.000000)">
                <path d="M39.5032767,9.87580181 C55.8660976,9.87580181 69.1307631,23.1404673 69.1307631,39.5032882 C69.1307631,55.8661092 55.8660976,69.1307747 39.5032767,69.1307747 C23.1404557,69.1307747 9.87579024,55.8661092 9.87579024,39.5032882 C9.87579024,23.1404673 23.1404557,9.87580181 39.5032767,9.87580181 Z" id="Path" fill="#F0EC79"></path>
                <rect id="Rectangle" x="0" y="0" width="79.0065533" height="79.0065533"></rect>
                <rect id="Rectangle" x="9.87580181" y="9.87580181" width="59.2549729" height="59.2549729"></rect>
                <rect id="Rectangle" x="0" y="0" width="79.0065533" height="79.0065533"></rect>
                <rect id="Rectangle" x="9.87580181" y="9.87580181" width="59.2549729" height="59.2549729"></rect>
                <path d="M28.1760868,55.7762893 C29.9029642,46.3753606 47.7124051,47.3318307 50.8304665,55.7762893 C42.9946098,50.1098242 35.3880651,49.0117787 28.1760868,55.7762893 Z" id="Path" fill="#474747"></path>
                <g id="_519811904" transform="translate(21.265823, 26.329114)" fill="#474747" fill-rule="nonzero">
                    <g id="_519822896" transform="translate(0.578662, 0.578662)">
                        <path d="M33.952162,7.20966742 C30.3679653,6.17864709 28.4421671,6.20051704 24.7820152,7.21281133 C26.0609967,3.81989705 32.3527754,3.02148258 33.952162,7.20966742 Z" id="_519798992"></path>
                        <path d="M10.8056882,7.20966742 C7.2214915,6.17864709 5.29569331,6.20051704 1.63554141,7.21281133 C2.91452297,3.81989705 9.20630163,3.02148258 10.8056882,7.20966742 Z" id="_519798992"></path>
                    </g>
                </g>
                <g id="noun_Drop-or-tear_403076" transform="translate(50.886076, 36.005626)" fill="#77B3D9" fill-rule="nonzero">
                    <g id="Group" transform="translate(0.759494, 0.450070)">
                        <path d="M3.5443038,8.83654375 L3.5443038,8.83654375 C6.00316456,8.83654375 7.53164557,6.45899835 6.30221519,4.55696203 L3.5443038,0.277380297 L0.786392405,4.55696203 C-0.443037975,6.45899835 1.08544304,8.83654375 3.5443038,8.83654375 Z" id="Path"></path>
                    </g>
                </g>
            </g>
        </g>
    </g>
</svg>