<?xml version="1.0" encoding="UTF-8"?>
<svg width="328px" height="328px" viewBox="0 0 328 328" version="1.1" xmlns="http://www.w3.org/2000/svg" xmlns:xlink="http://www.w3.org/1999/xlink">
    <!-- Generator: Sketch 59.1 (86144) - https://sketch.com -->
    <title>Group 2</title>
    <desc>Created with Sketch.</desc>
    <defs>
        <circle id="path-1" cx="164" cy="164" r="164"></circle>
        <filter x="-7.8%" y="-7.7%" width="115.6%" height="115.3%" filterUnits="objectBoundingBox" id="filter-3">
            <feOffset dx="0" dy="4" in="SourceAlpha" result="shadowOffsetOuter1"></feOffset>
            <feGaussianBlur stdDeviation="3" in="shadowOffsetOuter1" result="shadowBlurOuter1"></feGaussianBlur>
            <feColorMatrix values="0 0 0 0 0   0 0 0 0 0   0 0 0 0 0  0 0 0 0.5 0" type="matrix" in="shadowBlurOuter1" result="shadowMatrixOuter1"></feColorMatrix>
            <feMerge>
                <feMergeNode in="shadowMatrixOuter1"></feMergeNode>
                <feMergeNode in="SourceGraphic"></feMergeNode>
            </feMerge>
        </filter>
    </defs>
    <g id="wireframes" stroke="none" stroke-width="1" fill="none" fill-rule="evenodd">
        <g id="Onboarding-/-Tracking-Time" transform="translate(-23.000000, -242.000000)">
            <g id="Group-2" transform="translate(23.000000, 242.000000)">
                <mask id="mask-2" fill="white">
                    <use xlink:href="#path-1"></use>
                </mask>
                <use id="Mask" fill="#8CBE82" xlink:href="#path-1"></use>
                <g id="Asset-14" filter="url(#filter-3)" mask="url(#mask-2)">
                    <g transform="translate(75.000000, 52.000000)">
                        <path d="M83.3302146,8 L98.6815263,8 C103.275692,8 107,11.8202942 107,16.5328422 L107,39 L75,39 L75,16.5268204 C75,14.2622386 75.8782018,12.0906711 77.4409284,10.4910654 C79.003655,8.89145965 81.1225254,7.99522132 83.3302146,8 L83.3302146,8 Z" id="Path" fill="#757576" fill-rule="nonzero"></path>
                        <path d="M150.169958,217 C147.71811,217.001035 145.453563,215.627539 144.235422,213.400578 L132.963058,192.81461 C131.699244,190.594404 131.677913,187.833397 132.90726,185.592094 C134.136606,183.350791 136.425462,181.977718 138.894679,182 C141.363895,182.022829 143.629503,183.437506 144.821281,185.700926 L156.093645,206.286894 C157.30668,208.499821 157.301796,211.221394 156.080829,213.429538 C154.859862,215.637681 152.607633,216.99814 150.169958,217 L150.169958,217 Z" id="Path" fill="#616262" fill-rule="nonzero"></path>
                        <path d="M33.8340923,217 C31.3959442,216.996676 29.1436478,215.636407 27.9216055,213.429168 C26.6995631,211.221928 26.6923844,208.501158 27.9027608,206.286894 L39.1739186,185.700926 C40.3661429,183.437506 42.632599,182.022829 45.1027399,182 C47.5728807,181.977718 49.8625945,183.350791 51.0924008,185.592094 C52.3222071,187.833397 52.3008687,190.594404 51.0365816,192.81461 L39.7708504,213.400578 C38.5514258,215.626677 36.2865556,217 33.8340923,217 L33.8340923,217 Z" id="Path" fill="#616262" fill-rule="nonzero"></path>
                        <polygon id="Rectangle" fill="#F05323" fill-rule="nonzero" transform="translate(35.114585, 31.292956) rotate(-36.890000) translate(-35.114585, -31.292956) " points="23.8119276 22.7624561 46.581608 22.5446532 46.4172427 39.823455 23.6475624 40.0412579"></polygon>
                        <path d="M7.32434832,52 C-3.80169713,36.6860738 3.7437441,21.2052541 18.5673342,9.74139055 C33.3909243,-1.72247299 49.8739546,-4.92798102 61,10.3917001 L7.32434832,52 Z" id="Path" fill="#EB6930" fill-rule="nonzero"></path>
                        <polygon id="Rectangle" fill="#F05323" fill-rule="nonzero" transform="translate(148.874167, 31.295302) rotate(-143.110000) translate(-148.874167, -31.295302) " points="137.407144 22.5469992 160.176825 22.7648021 160.34119 40.0436039 137.57151 39.825801"></polygon>
                        <path d="M175.672265,52 C186.808745,36.6975611 179.247075,21.2283539 164.429989,9.74433646 C149.612902,-1.73968097 133.125343,-4.91403131 122,10.3941582 L175.672265,52 Z" id="Path" fill="#EB6930" fill-rule="nonzero"></path>
                        <path d="M167,112.5 C167,154.749783 133.421356,189 92,189 C50.5786438,189 17,154.749783 17,112.5 C17,70.2502166 50.5786438,36 92,36 C111.891237,36 130.96778,44.0597983 145.033009,58.4063312 C159.098237,72.7528642 167,92.2109385 167,112.5 Z" id="Path" fill="#FFFFFF" fill-rule="nonzero"></path>
                        <path d="M99.7110201,181.935528 C69.621044,181.946833 42.2926602,163.876138 29.7855054,135.697791 C17.2783506,107.519443 21.8935104,74.4177385 41.5943787,51 C19.8148094,70.3868632 10.3850299,100.680954 17.1620324,129.491307 C23.939035,158.301659 45.7861581,180.796105 73.7674358,187.773907 C101.748714,194.75171 131.171032,185.04253 150,162.61764 C136.050524,175.094672 118.188925,181.955984 99.7110201,181.935528 Z" id="Path" fill="#E0E0E0" fill-rule="nonzero"></path>
                        <path d="M104,112 C104,118.627417 98.627417,124 92,124 C85.372583,124 80,118.627417 80,112 C80,105.372583 85.372583,100 92,100 C98.6261337,100.003097 103.996903,105.373866 104,112 L104,112 Z" id="Path" fill="#757576" fill-rule="nonzero"></path>
                        <path d="M92.5032216,58 C91.1225166,58 90.003234,57.0932559 90.003234,55.9747303 L90.003234,45.128054 C89.9563675,44.3809113 90.4217329,43.6736873 91.2135451,43.2887231 C92.0053572,42.903759 92.9946428,42.903759 93.7864549,43.2887231 C94.5782671,43.6736873 95.0436325,44.3809113 94.996766,45.128054 L94.996766,55.9747303 C94.9967705,57.0912206 93.8814097,57.9971224 92.5032216,58 L92.5032216,58 Z" id="Path" fill="#616262" fill-rule="nonzero"></path>
                        <path d="M64.8555798,65.9945128 C64.0900853,65.9967336 63.3817142,65.5947357 62.9979796,64.9403317 L57.2482646,55.1085907 C56.7097967,54.1003757 57.0750456,52.8519597 58.0749301,52.283059 C59.0748146,51.7141583 60.3510676,52.0286148 60.963465,52.9947664 L66.7076514,62.8265074 C67.0949137,63.4800992 67.0976047,64.2886863 66.714701,64.94478 C66.3317973,65.6008736 65.6221335,66.0036627 64.8555798,66 L64.8555798,65.9945128 Z" id="Path" fill="#616262" fill-rule="nonzero"></path>
                        <path d="M44.8747385,88 C44.504347,88.0015239 44.1402894,87.902539 43.8203181,87.7132818 L34.0533419,81.9849978 C33.4018699,81.6038608 33.0003383,80.8991246 33,80.1362566 C32.9996622,79.3733886 33.400569,78.6682865 34.051703,78.2865556 C34.702837,77.9048246 35.5052755,77.9044588 36.1567475,78.2855959 L45.9400292,84.0138799 C46.7698413,84.4949019 47.1756337,85.4829521 46.9279422,86.4193159 C46.6802507,87.3556798 45.8413475,88.0049455 44.8856088,88 L44.8747385,88 Z" id="Path" fill="#616262" fill-rule="nonzero"></path>
                        <path d="M37.9607568,115 L27.0392432,115 C25.9130003,115 25,113.880712 25,112.5 C25,111.119288 25.9130003,110 27.0392432,110 L37.9607568,110 C39.0869997,110 40,111.119288 40,112.5 C40,113.880712 39.0869997,115 37.9607568,115 L37.9607568,115 Z" id="Path" fill="#616262" fill-rule="nonzero"></path>
                        <path d="M35.0894102,147.999806 C34.1420746,147.999748 33.3133291,147.3524 33.070182,146.422551 C32.827035,145.492701 33.2303423,144.513077 34.0528352,144.035709 L43.7707253,138.339032 C44.4200469,137.914173 45.246905,137.886686 45.9221953,138.267511 C46.5974857,138.648336 47.0116147,139.375669 46.9997518,140.160018 C46.9878889,140.944367 46.5519592,141.658439 45.8654705,142.018022 L36.1475804,147.714698 C35.8272237,147.906358 35.4611878,148.004981 35.0894102,147.999806 L35.0894102,147.999806 Z" id="Path" fill="#616262" fill-rule="nonzero"></path>
                        <path d="M59.1455442,172 C58.37957,171.998841 57.6721309,171.594976 57.2886645,170.939936 C56.9051982,170.284896 56.903689,169.47773 57.2847033,168.821295 L63.044449,158.973334 C63.6654636,158.021136 64.933865,157.718359 65.9264797,158.285373 C66.9190944,158.852387 67.2861931,160.089415 66.7605925,161.096117 L61.0063851,170.944078 C60.6211467,171.598733 59.9120706,172.001093 59.1455442,172 L59.1455442,172 Z" id="Path" fill="#616262" fill-rule="nonzero"></path>
                        <path d="M92.5032216,181 C91.1225166,181 90.003234,180.093256 90.003234,178.97473 L90.003234,168.128054 C89.9563675,167.380911 90.4217329,166.673687 91.2135451,166.288723 C92.0053572,165.903759 92.9946428,165.903759 93.7864549,166.288723 C94.5782671,166.673687 95.0436325,167.380911 94.996766,168.128054 L94.996766,178.97473 C94.9967705,180.091221 93.8814097,180.997122 92.5032216,181 L92.5032216,181 Z" id="Path" fill="#616262" fill-rule="nonzero"></path>
                        <path d="M124.868374,172 C124.103716,172 123.397156,171.597596 123.014827,170.944448 L117.27766,161.150668 C116.699414,160.142192 117.053247,158.862505 118.070516,158.283193 C119.087786,157.703882 120.388342,158.041433 120.984753,159.039564 L126.716404,168.833344 C127.095442,169.485326 127.094469,170.2869 126.713849,170.937985 C126.333228,171.589069 125.63036,171.991477 124.868374,171.994559 L124.868374,172 Z" id="Path" fill="#616262" fill-rule="nonzero"></path>
                        <path d="M147.899749,148 C147.531732,148.002309 147.169903,147.903813 146.85238,147.714847 L137.134525,142.018083 C136.448039,141.658495 136.012111,140.944412 136.000248,140.160051 C135.988385,139.37569 136.402513,138.648346 137.077801,138.267515 C137.753089,137.886685 138.579944,137.914172 139.229263,138.339037 L148.947118,144.035801 C149.771381,144.514176 150.174459,145.49679 149.928424,146.428001 C149.682389,147.359212 148.849096,148.004905 147.899749,148 L147.899749,148 Z" id="Path" fill="#616262" fill-rule="nonzero"></path>
                        <path d="M158.962185,115 L148.037815,115 C146.912361,115 146,113.880712 146,112.5 C146,111.119288 146.912361,110 148.037815,110 L158.962185,110 C160.087639,110 161,111.119288 161,112.5 C161,113.880712 160.087639,115 158.962185,115 L158.962185,115 Z" id="Path" fill="#616262" fill-rule="nonzero"></path>
                        <path d="M138.105703,88 C137.155347,88.00741 136.319761,87.3625551 136.072277,86.4306599 C135.824793,85.4987647 136.227772,84.5146511 137.05294,84.035787 L146.770752,78.3390367 C147.420068,77.9141723 148.246919,77.8866848 148.922204,78.2675147 C149.597489,78.6483445 150.011615,79.3756865 149.999752,80.1600456 C149.987889,80.9444047 149.551963,81.6584865 148.86548,82.0180737 L139.147668,87.714824 C138.831725,87.9028399 138.471889,88.0013015 138.105703,88 L138.105703,88 Z" id="Path" fill="#616262" fill-rule="nonzero"></path>
                        <path d="M119.141723,66 C118.377126,66.0055796 117.668364,65.6054048 117.285577,64.9519412 C116.90279,64.2984776 116.904955,63.4924057 117.291247,62.8409556 L123.018909,53.0540811 C123.607466,52.0466228 124.911838,51.7009528 125.932307,52.2820055 C126.952775,52.8630582 127.302909,54.1508008 126.714353,55.1582591 L120.992198,64.9451336 C120.611337,65.5986441 119.905419,66.0010317 119.141723,66 Z" id="Path" fill="#616262" fill-rule="nonzero"></path>
                        <path d="M92.5,117 C91.3061067,117.001529 90.1607178,116.472286 89.3165071,115.52902 C88.4722965,114.585753 87.9986315,113.30597 88,111.97199 L88,80.0280062 C88,77.2511151 90.0147203,75 92.5,75 C94.9852797,75 97,77.2511151 97,80.0280062 L97,111.97199 C97.0013685,113.30597 96.5277035,114.585753 95.6834929,115.52902 C94.8392822,116.472286 93.6938933,117.001529 92.5,117 Z" id="Path" fill="#757576" fill-rule="nonzero"></path>
                        <path d="M128.754675,133 C128.271729,133 127.794782,132.892432 127.35791,132.685503 L90.8520564,115.214057 C89.8041226,114.712454 89.1020137,113.68699 89.0102074,112.523947 C88.9184011,111.360904 89.450845,110.236975 90.4069725,109.575535 C91.3631001,108.914095 92.5976528,108.815631 93.6455867,109.317234 L130.15144,126.783063 C131.520205,127.441359 132.254062,128.96373 131.919803,130.451498 C131.585545,131.939267 130.272042,132.996875 128.754675,133 L128.754675,133 Z" id="Path" fill="#757576" fill-rule="nonzero"></path>
                        <path d="M99,112.5 C99,116.642136 95.6421356,120 91.5,120 C87.3578644,120 84,116.642136 84,112.5 C84,108.357864 87.3578644,105 91.5,105 C95.6421356,105 99,108.357864 99,112.5 Z" id="Path" fill="#616262" fill-rule="nonzero"></path>
                        <path d="M91.9719465,18 C41.1690553,18.015912 -0.00516368302,60.3261941 0,112.509601 C0.00516368302,164.693007 41.1877552,206.994691 91.9906485,207 C142.793542,207.005299 183.984504,164.712215 184,112.528811 C184,87.4582115 174.304211,63.4144386 157.045604,45.6868477 C139.786997,27.9592568 116.379303,18 91.9719465,18 Z M91.9719465,190.422165 C50.0907121,190.422165 16.1392635,155.548122 16.1392635,112.528811 C16.1392635,69.5094996 50.0907121,34.6354573 91.9719465,34.6354573 C133.853181,34.6354573 167.804629,69.5094996 167.804629,112.528811 C167.804629,155.548122 133.853181,190.422165 91.9719465,190.422165 L91.9719465,190.422165 Z" id="Shape" fill="#EB6930" fill-rule="nonzero"></path>
                        <path d="M91.4971774,192 C48.2094135,192 13,156.337624 13,112.5 C13,68.662376 48.2094135,33 91.4971774,33 C134.784941,33 170,68.662376 170,112.5 C170,156.337624 134.784941,192 91.4971774,192 Z M91.4971774,37.4306414 C50.6255798,37.4306414 17.3694222,71.1092334 17.3694222,112.5 C17.3694222,153.890767 50.6255798,187.569359 91.4971774,187.569359 C132.368775,187.569359 165.619287,153.890767 165.619287,112.5 C165.619287,71.1092334 132.368775,37.4306414 91.4971774,37.4306414 Z" id="Shape" fill="#616262" fill-rule="nonzero"></path>
                        <path d="M129.269404,164.234814 L111.978937,159.952908 C103.427028,158.584523 97.1884329,163.944032 99.5752752,169.007058 C99.5752752,169.007058 121.633771,175.848985 132.860979,184.24745 C149.829053,196.933523 159.591351,198.398835 160.422787,198.501464 L175.744957,221 L217,221 L187.158815,176.459057 C186.304755,164.320338 185.880553,157.221839 179.12726,148.646624 L159.331174,119.819306 C158.347973,118.29207 156.801477,117.222847 155.034007,116.848313 C153.266537,116.473778 151.423873,116.824824 149.913893,117.823744 C149.070924,118.376782 148.361622,119.113231 147.838132,119.978951 C145.865709,118.866158 143.473174,118.8162 141.45673,119.845702 C139.440286,120.875204 138.064561,122.849059 137.787377,125.110396 C135.917843,124.605157 133.923407,124.924351 132.301033,125.988444 C130.887027,126.923507 125.513804,131.222518 125.095258,132.744846 L107.499366,106.106945 C106.169743,104.055698 103.855543,102.87533 101.428502,103.010474 C99.0014603,103.145617 96.8303035,104.57574 95.7328849,106.76213 C94.6354662,108.94852 94.7785097,111.559011 96.1081322,113.610258 L129.269404,164.234814 Z" id="Path" fill="#FBB894" fill-rule="nonzero"></path>
                        <g id="Group" opacity="0.3" stroke-width="1" fill="none" fill-rule="evenodd" transform="translate(98.000000, 104.000000)">
                            <path d="M4.71,65.823719 L6.815,61.2275207 C6.815,61.2275207 11.815,61.2275207 13.14,63.7480165 C14.465,66.2685124 12.23,68.8802479 12.23,68.8802479 L4.71,65.823719 Z" id="Path" fill="#FFFFFF" fill-rule="nonzero"></path>
                            <path d="M2.395,1.33438017 C-0.895,4.18561983 0.29,7.27636364 2.82,10.35 C5.35,13.4236364 7.875,11.8041322 8.63,11.0628099 C10.55,9.1638843 9.87,6.71181818 8.775,4.21983471 C7.68,1.72785124 5.41,-1.26595041 2.395,1.33438017 Z" id="Path" fill="#FFFFFF" fill-rule="nonzero"></path>
                        </g>
                        <polygon id="Path" fill="#8CBE82" fill-rule="nonzero" points="256 261 208.727635 186 185 202.195017 222.057455 261"></polygon>
                        <polygon id="Path" fill="#8CBE82" fill-rule="nonzero" points="223 261 185.132979 202 160 218.835945 187.05984 261"></polygon>
                    </g>
                </g>
            </g>
        </g>
    </g>
</svg>