<svg id="Слой_1" data-name="Слой 1" xmlns="http://www.w3.org/2000/svg" xmlns:xlink="http://www.w3.org/1999/xlink" viewBox="0 0 1702.15 1133.86"><defs><style>.cls-1{mask:url(#mask);}.cls-2,.cls-4,.cls-6{mix-blend-mode:multiply;}.cls-2{fill:url(#Безымянный_градиент_9);}.cls-3{mask:url(#mask-2);}.cls-4{fill:url(#Безымянный_градиент_8);}.cls-5{mask:url(#mask-3);}.cls-6{fill:url(#Безымянный_градиент_7);}.cls-15,.cls-16,.cls-17,.cls-7{fill:#fff;}.cls-8{fill:#bae5f5;}.cls-9{fill:url(#Безымянный_градиент_29);}.cls-10{fill:url(#Безымянный_градиент_32);}.cls-11{fill:url(#Безымянный_градиент_32-2);}.cls-12{fill:url(#Безымянный_градиент_32-3);}.cls-13{fill:url(#Безымянный_градиент_32-4);}.cls-14{fill:url(#Безымянный_градиент_32-5);}.cls-15,.cls-18{opacity:0.3;}.cls-16{opacity:0.4;}.cls-17{opacity:0.5;}.cls-18,.cls-19{fill:#8c96e2;}.cls-19{opacity:0.2;}.cls-20{fill:url(#Безымянный_градиент_214);}.cls-21{fill:url(#Безымянный_градиент_27);}.cls-22{fill:url(#Безымянный_градиент_4);}.cls-23{fill:#6383c5;}.cls-24{mask:url(#mask-4);}.cls-25{fill:#8cbe82;}.cls-26{fill:#9b9a30;}.cls-27{fill:#873a1f;}.cls-28{fill:#49773a;}.cls-29{fill:#789767;}.cls-30{mask:url(#mask-5);}.cls-31{mask:url(#mask-6);}.cls-32{fill:#506485;}.cls-33{fill:#4c7a3c;}.cls-34{filter:url(#luminosity-noclip-6);}.cls-35{filter:url(#luminosity-noclip-5);}.cls-36{filter:url(#luminosity-noclip-4);}.cls-37{filter:url(#luminosity-noclip-3);}.cls-38{filter:url(#luminosity-noclip-2);}.cls-39{filter:url(#luminosity-noclip);}</style><filter id="luminosity-noclip" x="0" y="-8759" width="1700.79" height="32766" filterUnits="userSpaceOnUse" color-interpolation-filters="sRGB"><feFlood flood-color="#fff" result="bg"/><feBlend in="SourceGraphic" in2="bg"/></filter><mask id="mask" x="0" y="-8759" width="1700.79" height="32766" maskUnits="userSpaceOnUse"><g class="cls-39"/></mask><linearGradient id="Безымянный_градиент_9" y1="871.82" x2="1700.79" y2="871.82" gradientUnits="userSpaceOnUse"><stop offset="0" stop-color="#fff"/><stop offset="0.12" stop-color="#fbfbfb"/><stop offset="0.25" stop-color="#eee"/><stop offset="0.37" stop-color="#dadada"/><stop offset="0.5" stop-color="#bcbcbc"/><stop offset="0.63" stop-color="#979797"/><stop offset="0.76" stop-color="#696969"/><stop offset="0.89" stop-color="#343434"/><stop offset="1"/></linearGradient><filter id="luminosity-noclip-2" x="1094.55" y="-8759" width="607.6" height="32766" filterUnits="userSpaceOnUse" color-interpolation-filters="sRGB"><feFlood flood-color="#fff" result="bg"/><feBlend in="SourceGraphic" in2="bg"/></filter><mask id="mask-2" x="1094.55" y="-8759" width="607.6" height="32766" maskUnits="userSpaceOnUse"><g class="cls-38"/></mask><linearGradient id="Безымянный_градиент_8" x1="936.53" y1="905.72" x2="1658.81" y2="905.72" gradientUnits="userSpaceOnUse"><stop offset="0" stop-color="#fff"/><stop offset="1" stop-color="gray"/></linearGradient><filter id="luminosity-noclip-3" x="0" y="-8759" width="530.26" height="32766" filterUnits="userSpaceOnUse" color-interpolation-filters="sRGB"><feFlood flood-color="#fff" result="bg"/><feBlend in="SourceGraphic" in2="bg"/></filter><mask id="mask-3" x="0" y="-8759" width="530.26" height="32766" maskUnits="userSpaceOnUse"><g class="cls-37"/></mask><linearGradient id="Безымянный_градиент_7" x1="-77.71" y1="886.6" x2="707.92" y2="886.6" gradientUnits="userSpaceOnUse"><stop offset="0" stop-color="#666"/><stop offset="1" stop-color="#fff"/></linearGradient><linearGradient id="Безымянный_градиент_29" x1="1249.9" y1="218.41" x2="1249.9" y2="787.8" gradientUnits="userSpaceOnUse"><stop offset="0" stop-color="#777fe0"/><stop offset="0.2" stop-color="#91a4e9"/><stop offset="0.41" stop-color="#a6c1f1"/><stop offset="0.61" stop-color="#b5d5f6"/><stop offset="0.81" stop-color="#bee2f9"/><stop offset="1" stop-color="#c1e6fa"/></linearGradient><linearGradient id="Безымянный_градиент_32" x1="1298.87" y1="333.79" x2="1298.87" y2="870.31" gradientUnits="userSpaceOnUse"><stop offset="0" stop-color="#7c84e0"/><stop offset="0.19" stop-color="#94a5e9"/><stop offset="0.39" stop-color="#a9c2f0"/><stop offset="0.6" stop-color="#b8d6f6"/><stop offset="0.8" stop-color="#c1e3f9"/><stop offset="1" stop-color="#c4e7fa"/></linearGradient><linearGradient id="Безымянный_градиент_32-2" x1="905.08" y1="532.96" x2="905.08" y2="815.4" xlink:href="#Безымянный_градиент_32"/><linearGradient id="Безымянный_градиент_32-3" x1="1210.51" y1="517.39" x2="1210.51" y2="835.23" xlink:href="#Безымянный_градиент_32"/><linearGradient id="Безымянный_градиент_32-4" x1="1051.24" y1="476.66" x2="1051.24" y2="807.12" xlink:href="#Безымянный_градиент_32"/><linearGradient id="Безымянный_градиент_32-5" x1="1466.36" y1="436.47" x2="1466.36" y2="925.56" xlink:href="#Безымянный_градиент_32"/><linearGradient id="Безымянный_градиент_214" x1="552.61" y1="735.16" x2="1815.68" y2="735.16" gradientUnits="userSpaceOnUse"><stop offset="0" stop-color="#649ad1"/><stop offset="0.17" stop-color="#6091cb"/><stop offset="0.44" stop-color="#5579ba"/><stop offset="0.78" stop-color="#42519f"/><stop offset="1" stop-color="#35358c"/></linearGradient><linearGradient id="Безымянный_градиент_27" x1="-317.5" y1="747.52" x2="1502.17" y2="747.52" gradientUnits="userSpaceOnUse"><stop offset="0" stop-color="#c1dffa"/><stop offset="1" stop-color="#4878bf"/></linearGradient><linearGradient id="Безымянный_градиент_4" x1="961.24" y1="772.17" x2="1700.79" y2="772.17" gradientUnits="userSpaceOnUse"><stop offset="0" stop-color="#bbdcfa"/><stop offset="1" stop-color="#3c71bf"/></linearGradient><filter id="luminosity-noclip-4" x="0" y="801.95" width="1700.79" height="139.73" filterUnits="userSpaceOnUse" color-interpolation-filters="sRGB"><feFlood flood-color="#fff" result="bg"/><feBlend in="SourceGraphic" in2="bg"/></filter><mask id="mask-4" x="0" y="801.95" width="1700.79" height="139.73" maskUnits="userSpaceOnUse"><g class="cls-36"><g transform="translate(0 0)"><g class="cls-1"><rect class="cls-2" y="801.95" width="1700.79" height="139.73"/></g></g></g></mask><filter id="luminosity-noclip-5" x="1094.55" y="871.12" width="607.6" height="69.2" filterUnits="userSpaceOnUse" color-interpolation-filters="sRGB"><feFlood flood-color="#fff" result="bg"/><feBlend in="SourceGraphic" in2="bg"/></filter><mask id="mask-5" x="1094.55" y="871.12" width="607.6" height="69.2" maskUnits="userSpaceOnUse"><g class="cls-35"><g transform="translate(0 0)"><g class="cls-3"><path class="cls-4" d="M1702.15,876.47c-38.45-10.5-63.74-4.88-103.76,11-47.43,18.86-84.78-17.84-160.65-3-41.44,8.08-64,35.79-177.32,18.6-91-13.8-151.36,22-165.87,37.26h607.6Z"/></g></g></g></mask><filter id="luminosity-noclip-6" x="0" y="831.52" width="530.26" height="110.17" filterUnits="userSpaceOnUse" color-interpolation-filters="sRGB"><feFlood flood-color="#fff" result="bg"/><feBlend in="SourceGraphic" in2="bg"/></filter><mask id="mask-6" x="0" y="831.52" width="530.26" height="110.17" maskUnits="userSpaceOnUse"><g class="cls-34"><g transform="translate(0 0)"><g class="cls-5"><path class="cls-6" d="M0,941.69H530.26C517.85,918,433.87,869.18,334.63,884c-86.06,12.84-104.79-16.29-140.21-28.8-64.85-22.92-84.54,37.16-137.31,4.71C39.5,849.05,20.53,837.51,0,831.52Z"/></g></g></g></mask></defs><rect class="cls-7" width="1700.79" height="1133.86"/><path class="cls-8" d="M1483.17,208.69c-72.86,34.8-102.39,83.66-201.51,94.6-86.73,9.57-104.43-25-164.8-42.11-105.52-29.86-263.2,87.93-309.86,33.27-24.46-28.65-7.58-117.82-113.13-102.76-105,15-88.09-36.39-87.14-51.29,3.6-56.89-39.73-71.51-139.07-26.09C402.67,144,363.6,148.06,341.81,132c-10.36-7.67-25.61-59.41-91.44-8.95-57.75,44.26-196.09,14.5-196.09,98.55,0,35.93-39.16,44.59-54.28,54.27V807.13H1700.79V227.88c-34.62-4.81-77.12,28.62-109.45-2.53C1556.58,191.87,1528.67,187,1483.17,208.69Z" transform="translate(0 0)"/><path class="cls-9" d="M1700.79,807.13V595.86c0-7.27-1.26-6.74-8.67-6.74h-67.69c-5.23,0-8.68-1.94-8.68-8.16V541.78c0-5.27-1.78-9.67-9.81-9.67h-61.32c-9.76,0-17.4,3.06-17.4,11.88v82.76c0,4.89-.6,6.9-7.81,6.9h-22.14c-7.15,0-9-5.64-9-11.85.07-9.47,0-171.61,0-178s-1.31-7.37-6.26-7.37h-43.34c-5.83,0-10.14-2.09-10.14-6.56V380.66c0-8.51-1.53-12.33-8.63-12.33h-71.4c-8.33,0-9.1,4.92-9.1,13.45v79c0,3.54-1.29,6.22-4.59,6.22h-18.32c-6.13,0-6.27-3.28-6.27-9.68V327.91c0-8.88-1.36-13.36-9-13.36h-85.5c-5.91,0-7.39,6.24-7.39,9.45v94.09c0,3.65-.86,5.18-5,5.18-3.48,0-5.33,0-12.31,0-4,0-4.69-2.05-4.79-4.63V364.26a5,5,0,0,0-5.14-5l-65.76.23a6.19,6.19,0,0,0-6.07,6.17c0,27.18,0,138.23,0,160.44,0,2.65-.89,4.39-4.26,4.39-1.92,0-6,0-11.26,0-1.78,0-3.15-.61-3.15-2.49,0-4.33,0-8.06,0-13.22,0-4.32-1.73-4.72-6.58-4.72l-16.55,0a4.46,4.46,0,0,1-4.48-4.37c-.15-7-.42-20.41-.42-24.71,0-1.09-.71-4.38-3.87-4.38H976.06c-4.68,0-6,2.26-6,7.93V597.92c0,3.21-3.59,6-6.21,6-12.23,0-26.92.39-38.2.39-3.94,0-5.12-4-5.12-5.44,0-9.12,0-27.61,0-38,0-3.73.07-6.71-5.94-6.71H838c-5.82,0-9.28.77-9.28,6.71V587.4c0,4.51-.36,6.24-6.63,6.24H807.92c-7.34,0-8.79,3.52-8.79,10.25,0,21.45-.28,162.48,0,203.24h901.66Z" transform="translate(0 0)"/><path class="cls-10" d="M1310.22,457.35V807.12h-22.69V314.56h13.72c7.62,0,9,3.2,9,12.07C1310.21,337.4,1310.22,443.66,1310.22,457.35Z" transform="translate(0 0)"/><path class="cls-11" d="M920.5,560.57V807.12H894V560.84c0-4.1.15-6.7-4.28-6.7h24.87C920.43,554.14,920.5,557,920.5,560.57Z" transform="translate(0 0)"/><rect class="cls-12" x="1185.67" y="530.56" width="49.69" height="276.57"/><path class="cls-7" d="M1184.56,534.88h-92.83c-.75,0-1.12-.43-1.12-1.25V531.7a1,1,0,0,1,1.12-1.14h92.77c.9,0,1.17.66,1.17,1.48v1.36C1185.67,534.22,1185.64,534.88,1184.56,534.88Z" transform="translate(0 0)"/><rect class="cls-7" x="970.04" y="490.01" width="57.46" height="8.28" rx="1.8"/><path class="cls-13" d="M1063,505.8V807.12h-19.21V481.3c0-1.89-.43-4.47-3.93-4.53-3.27-.06,16.38-.17,18.86-.06,3.15.14,3.86,3.29,3.86,4.38C1062.57,485.39,1062.84,498.78,1063,505.8Z" transform="translate(0 0)"/><path class="cls-7" d="M1221.65,427.8h-81.83a1.38,1.38,0,0,1-1.58-1.56v-1.58a1.34,1.34,0,0,1,1.38-1.41H1222c.86,0,1.44.36,1.44,1.36v1.81C1223.47,427.43,1222.66,427.8,1221.65,427.8Z" transform="translate(0 0)"/><rect class="cls-14" x="1444.45" y="436.47" width="43.81" height="370.65"/><path class="cls-15" d="M1206.75,444.26h-66.93c-1.09,0-1.58-.51-1.58-1.45v-5.32a1.29,1.29,0,0,1,1.38-1.32h67.51c.86,0,1.44.34,1.44,1.27V443C1208.57,443.91,1207.75,444.26,1206.75,444.26Z" transform="translate(0 0)"/><path class="cls-16" d="M1221.65,459.51h-66.09c-1.1,0-1.58-.51-1.58-1.45v-5.32a1.29,1.29,0,0,1,1.38-1.32H1222c.86,0,1.44.34,1.44,1.27v5.54C1223.47,459.17,1222.66,459.51,1221.65,459.51Z" transform="translate(0 0)"/><path class="cls-15" d="M1197,490h-13.16c-1.09,0-1.58-.52-1.58-1.46v-5.32a1.29,1.29,0,0,1,1.38-1.32h13.74c.86,0,1.44.34,1.44,1.28v5.53C1198.77,489.67,1198,490,1197,490Z" transform="translate(0 0)"/><path class="cls-15" d="M1176.3,490h-36.48c-1.09,0-1.58-.52-1.58-1.46v-5.32a1.29,1.29,0,0,1,1.38-1.32h37.06c.86,0,1.44.34,1.44,1.28v5.53C1178.12,489.67,1177.31,490,1176.3,490Z" transform="translate(0 0)"/><rect class="cls-15" x="984.63" y="505.25" width="57.46" height="8.28" rx="1.8"/><rect class="cls-17" x="970.04" y="520.49" width="24.77" height="8.28" rx="1.8"/><rect class="cls-15" x="970.04" y="535.73" width="57.46" height="8.28" rx="1.8"/><rect class="cls-17" x="1010.74" y="551.13" width="31.35" height="8.28" rx="1.8"/><rect class="cls-17" x="970.04" y="581.76" width="47.54" height="8.28" rx="1.8"/><rect class="cls-15" x="990.05" y="612.4" width="52.04" height="8.28" rx="1.8"/><path class="cls-18" d="M1410.32,459.51H1343.6c-1.1,0-1.59-.51-1.59-1.45v-5.32a1.3,1.3,0,0,1,1.39-1.32h67.3c.86,0,1.44.34,1.44,1.27v5.54C1412.14,459.17,1411.32,459.51,1410.32,459.51Z" transform="translate(0 0)"/><path class="cls-19" d="M1410.32,474.76h-40.87c-1.09,0-1.58-.51-1.58-1.45V468a1.3,1.3,0,0,1,1.39-1.32h41.44c.86,0,1.44.34,1.44,1.28v5.53C1412.14,474.42,1411.32,474.76,1410.32,474.76Z" transform="translate(0 0)"/><path class="cls-18" d="M1396.4,505.27h-13.16c-1.1,0-1.59-.52-1.59-1.46v-5.32a1.31,1.31,0,0,1,1.39-1.32h13.74c.85,0,1.43.34,1.43,1.28V504C1398.21,504.92,1397.4,505.27,1396.4,505.27Z" transform="translate(0 0)"/><path class="cls-18" d="M1375.75,505.27H1343.6c-1.1,0-1.59-.52-1.59-1.46v-5.32a1.31,1.31,0,0,1,1.39-1.32h32.73c.85,0,1.43.34,1.43,1.28V504C1377.56,504.92,1376.75,505.27,1375.75,505.27Z" transform="translate(0 0)"/><path class="cls-19" d="M1420.93,536.45h-66c-1.1,0-1.58-.52-1.58-1.46v-5.32a1.3,1.3,0,0,1,1.38-1.32h66.6c.86,0,1.44.34,1.44,1.28v5.53C1422.75,536.1,1421.93,536.45,1420.93,536.45Z" transform="translate(0 0)"/><path class="cls-19" d="M1394.58,551.7h-51c-1.1,0-1.59-.52-1.59-1.45v-5.33a1.3,1.3,0,0,1,1.39-1.31H1395c.86,0,1.44.33,1.44,1.27v5.53C1396.4,551.35,1395.59,551.7,1394.58,551.7Z" transform="translate(0 0)"/><path class="cls-18" d="M1410.32,567.68H1343.6c-1.1,0-1.59-.52-1.59-1.46V560.9a1.3,1.3,0,0,1,1.39-1.32h67.3c.86,0,1.44.34,1.44,1.28v5.53C1412.14,567.33,1411.32,567.68,1410.32,567.68Z" transform="translate(0 0)"/><path class="cls-19" d="M1410.32,582.93h-40.87c-1.09,0-1.58-.52-1.58-1.46v-5.32a1.31,1.31,0,0,1,1.39-1.32h41.44c.86,0,1.44.34,1.44,1.28v5.53C1412.14,582.58,1411.32,582.93,1410.32,582.93Z" transform="translate(0 0)"/><path class="cls-18" d="M1375.75,613.43H1343.6c-1.1,0-1.59-.52-1.59-1.45v-5.33a1.3,1.3,0,0,1,1.39-1.31h32.73c.85,0,1.43.33,1.43,1.27v5.53C1377.56,613.08,1376.75,613.43,1375.75,613.43Z" transform="translate(0 0)"/><path class="cls-19" d="M1429.29,644.61h-66c-1.09,0-1.58-.52-1.58-1.45v-5.33a1.29,1.29,0,0,1,1.38-1.31h66.6c.86,0,1.44.33,1.44,1.27v5.53C1431.11,644.26,1430.3,644.61,1429.29,644.61Z" transform="translate(0 0)"/><path class="cls-19" d="M1394.58,659.86h-51c-1.1,0-1.59-.52-1.59-1.45v-5.32a1.3,1.3,0,0,1,1.39-1.32H1395c.86,0,1.44.33,1.44,1.27v5.54C1396.4,659.51,1395.59,659.86,1394.58,659.86Z" transform="translate(0 0)"/><path class="cls-19" d="M1442.64,690h-40.87c-1.1,0-1.58-.52-1.58-1.46v-5.32a1.29,1.29,0,0,1,1.38-1.31H1443c.86,0,1.44.33,1.44,1.27v5.53C1444.45,689.64,1443.64,690,1442.64,690Z" transform="translate(0 0)"/><rect class="cls-15" x="1090.61" y="581.76" width="57.46" height="8.28" rx="1.8"/><rect class="cls-17" x="1131.31" y="597.16" width="31.35" height="8.28" rx="1.8"/><rect class="cls-17" x="1090.61" y="627.79" width="47.54" height="8.28" rx="1.8"/><rect class="cls-15" x="1131.31" y="658.42" width="52.04" height="8.28" rx="1.8"/><rect class="cls-17" x="1119.34" y="551.13" width="64.84" height="8.28" rx="2.11"/><rect class="cls-17" x="1090.61" y="673.82" width="73.6" height="8.28" rx="2.24"/><path class="cls-20" d="M1700.79,705.21c-28,0-44.59,12.81-73.62,12.81-24.83,0-43.7-12.77-69.62-11.69-40,1.67-45,12.14-70.75,12.95-33.38,1.05-35.17-12.95-83.13-23.32-48.58-10.51-85,21.73-127.5,15.75-35.72-5-46.47-32.11-101.83-23.8-39.5,5.92-60.32,2.26-77.92-9.83-16.3-11.19-36.5-19.52-83.21-5.91-28.9,8.42-45.42,8.44-57.22,2.48-14.1-7.14-39.9-20.45-63.36-2.4-32.52,25-43.41-4.74-70.87,28.94-18.61,22.81-66.21-14.61-97.84,11.39-18,14.79-20.91,14.75-59,7.5-72.09-13.72-115.43,58.06-114.64,87H1700.79Z" transform="translate(0 0)"/><path class="cls-21" d="M0,807.13H1137.91c-8.24-30.6-79.76-73.35-190-56.42-47.74,7.34-97.32-36.14-150.28-31.15-74.78,7-67.1,28-150,27.79-94.3-.19-149.72-44.64-236.79-40.15-75.92,3.91-93.81,34-187.3,35.78-62.08,1.18-106.73-55.07-170.7-55.07-18.23,0-37.6,3.31-52.91,7.38Z" transform="translate(0 0)"/><path class="cls-22" d="M1700.79,807.13H961.24c13.74-10.88,44.52-26.17,69.29-25.76,21.58.37,30.49,8.92,53.54,7.25,24.17-1.74,42.54-22.75,76.49-24.59,35.81-1.94,62.25,15.72,88.63,15.1,28-.67,30.33-15.8,53.19-19.17s35.06,12.08,58,14.29c22.5,2.17,39.38-6.41,57.26-11.55,33.74-9.7,50.21,2,69.74,9.47,18.16,6.92,38.75,15.58,60.75,6.09,26-11.22,38.32-29.34,67.46-20.35,29.6,9.13,51.63-28.5,85.17-19.22Z" transform="translate(0 0)"/><path class="cls-23" d="M0,807.13H834.66c-21.23-22.26-102-50.19-174.34-41.58-58.14,6.92-68,14.31-142.66,14.31-74.51,0-117-39.2-204.48-33.16-59.82,4.13-87.55,26.75-161.42,27.56-49,.53-97-21.51-134.88-21.51-5.67,0-11.29.15-16.88.4Z" transform="translate(0 0)"/><g class="cls-24"><rect class="cls-25" y="801.95" width="1700.79" height="139.73"/></g><path class="cls-26" d="M246.41,410.3c-44.6,4.75-62.53-17.5-102.75-37.08-49.57-24.15-92.54-22.4-107.84-14.06-15.86,8.65-22.07,27-20.43,44.3,1.44,15.18,17.92,39.13,1.76,51-4.92,3.63-10.86,5.55-17.15,6.87V609.3c51,39.62,72.82,51.11,135,42.42,31.62-4.42,42.1-23.69,73.62-32.42,25.22-7,60.77.43,72.92-8.5,27.76-20.4-15.91-59.27-2.76-98.16C292.75,471.47,304.35,404.12,246.41,410.3Z" transform="translate(0 0)"/><path class="cls-26" d="M292.91,562.24c-6.81-8.69-35.19-17.22-57.5-7.94-16.83,7-29.73,37.5-62.61,31.77-22.06-3.84-43.36-16.05-66.12-11.34-11.83,2.44-32,17.82-54.27,13.57C30.66,584.14,24,568.64,0,565.94v78.7c8.93-1.28,17.85-3.77,24-3.83,25.21-.26,36.3,29,76.31,29.1,53.15.13,68.73-41.06,111.15-42.61,20.5-.75,61.94,2.46,77.88-13.25C298.16,605.3,310.16,585.55,292.91,562.24Z" transform="translate(0 0)"/><path class="cls-27" d="M206.59,567.21c-4.05,1.55-10.47,5.51-14.14,7.1-2.23,1-5.8,2.06-8.12,3.24,2.82-8.55,3.87-11.8,4.9-15.76.92-3.55-.9-7.64-1.88-5.33-2.28,5.42-11.42,33.13-16.41,43.82-7.58,16.21-14.45,26.35-18.94,32.06.4-16.77.15-32.52-.27-42.73-.68-16.13-.93-35.82,1.43-54.14.7-5.39-5.46-15.12-7.31-3.52-.94,5.9-1.82,17.26-2.19,24.1-3-4.29-11-16.71-12.3-18.43-2.32-3-4.89-1.54-2.53,2.43,2.15,3.63,11.51,19.28,13.82,22.45a8.61,8.61,0,0,0,.65.79c-.38,12.45-.13,23.33-.09,25.86.88,51.93-3.29,70.57-4.39,90.53-.77,14-2.77,26.78-6.41,24.62-5.12-3-19.42-87-22.78-102.5-2.1-9.67-7.44-.28-6.74,3.32.45,2.32,1.36,6.62,2.45,12.11-10.13-7.49-22.07-18.16-26.53-21.34-2.24-1.6-1.4,2.67,1.48,5.46,3.64,3.51,9,7.68,16.23,13.85,2.64,2.26,6.16,4.92,9.93,7.67,1.84,9.53,4,21.29,5.38,32.41,2.87,22.26,9.21,50.63,9.58,54.81,1.12,12.66,2,42.75,2.5,55.46,1.42,36.28-1.36,159.12-1.43,171.33,0,4,.93,4.81,3.68,4.81h25c2.69,0,3.1-1.63,3-3.72-1-36.13-3.5-148.67-3.87-182.92-.28-26.85.33-73.24,1.44-112.24,3.31-3.09,9.06-12.48,13.13-18.89,5.61-8.83,15.13-33.37,18.19-42.72,2.68-.5,8.16-3.19,11.49-4.77,2.74-1.3,11.91-7.18,13.08-7.91C209.61,567.32,208.09,566.63,206.59,567.21Z" transform="translate(0 0)"/><path class="cls-28" d="M566.28,517.56c-7.61-26.92-41.7-69.64-26-103.14,13.46-28.78,4-60.13-25.28-70.61-31.19-11.15-58.14,2.68-83.68-3-49.78-11.15-127.16-104.4-180.68-47.64-26.94,28.57,7.29,62-33,92.85-39.68,30.31-59.95,77.84-48.69,120.54,4.77,12.49,21.83-6,25.05,13.39.9,5.37,2.32,18.29,6.13,23.18,4.68,6,16.2,12.27,23.6,12.87,27,2.15,25.09,30.9,44.69,33,16.95,3.78,39.13-27.64,64.11-32.56,24-4.73,37.42,16.53,55.45,17.19,30.22,1.09,37-28.64,65.87-19.56,20.77,6.53,44.7,24.51,68.86,23.57C555.26,576.36,576.77,554.65,566.28,517.56Z" transform="translate(0 0)"/><path class="cls-28" d="M478.54,531.89c-17.55-2.93-35.22,1.5-49.44,1.49-34,0-47.06-29.05-72.46-30.68-32.32-2.07-60.95,20.34-73.4,22.66C251.69,531.23,239,499,213.05,504.79c-15.63,3.51-22,30-14,58.13,5.31,18.68,27.27,42,56.08,42.57,27.06.55,34.54-18.67,63.67-22.18,31.68-3.82,39.35,11.25,73,11.08,24.78-.12,34.64-16.77,64.54-17.95,25.69-1,72.91,17.57,74.07-3.7C531,562.25,506,536.5,478.54,531.89Z" transform="translate(0 0)"/><path class="cls-27" d="M452.6,549.61c-3.61,5.18-22.62,38.7-30.25,48.74-11.82,15.57-20.42,22.92-26.61,28,.69-4.15,1.31-11,2-15.42,1.45-8.91,22.05-122.22,22.53-126.52.23-2.07-6.41-1.19-7.19,3.45-1.42,8.57-4.44,21.2-6.69,32.73-2.57-4-12.29-18.66-13.56-20.16-2.3-2.71-4.83-1.38-2.49,2.18,2,3.07,12,19.89,14.57,23.4-9.35,49.48-26.91,158.87-36.51,159.52C362,686,354.89,653,350.66,640.43c-3.65-10.85-5.88-25.48-10-39.56,2.28-6.76,4.24-13.43,7-20.09a127.7,127.7,0,0,0,6.74-21.13c1.89-7.82,1.63-9.43,1.94-17.79.12-3.22-2.57-4.17-3.18,1.09-1.07,9.08-1.79,15.26-6.31,25.79-2.65,6.18-4.51,10.62-7.4,16.7-.51,1.06-1.24,2.53-2,4.1-7.18-22.15-13.92-54.93-20.44-80.68-2.09-8.26-10.07-9.29-9.5-4.85s6.37,32.5,9.33,44.51c-1-.35-1.9-.6-2.42-.78-3.22-1.11-10.24-4.44-13.39-5.69-4.36-1.74-15.49-7.45-13.56-4,1.2,2.1,9.81,6.29,12.07,7.34,4.12,1.94,8,3.91,12,5.84,1.16.56,4.36,2.59,6.77,3.37,1.67,6.65,9.36,39.92,10.63,44.81,4.56,17.5,6.4,32.43,11.8,52.09,10.83,39.49,13.09,81.87,12.92,121.29-.1,21.68-.62,145.66,0,164,.16,4.33.58,5,3.7,5h26.66c2.66,0,2.85-.3,3-3.34.59-9.86-2.46-155.93-3.31-204.13a353.7,353.7,0,0,1,3.66-60.34c2.07-13.38,5.64-26.76,7.74-39.24,4.24-3.23,10.58-9.74,16.48-15.66,8.16-8.17,18.32-23,23.39-31.91,4.5-7.94,16.94-29.59,19.07-34C455.86,549.61,454.14,547.39,452.6,549.61Z" transform="translate(0 0)"/><path class="cls-28" d="M1700.79,373c-30.38-13.61-52.29-1.07-89.88-21.39-33.75-18.25-59.08-36.07-102.75-37.69-35.32-1.31-59.46,19.13-56.85,57.81,3,44.48-29.06,47.2-51.18,75.16-23,29-24.77,74.93-9.22,107.38,16.3,34,79,56.87,131.42,52.51,116.76-9.7,138,14.74,178.46,8.73Z" transform="translate(0 0)"/><path class="cls-28" d="M1700.79,501.49c-27-10.5-52.33-14.8-65.13,26.11-9.77,31.25-70.33-15.48-105.75-5.35-22.2,6.35-27.83,43.75-49.5,52.5-24,9.68-61.28-12.25-67.5-12.84-22.28-2.11.34,31.79,19.5,45.53,11.86,8.49,39.53,25.09,66,20.7,22.93-3.81,26.7-16.07,40.84-21.47,19.66-7.52,34,8.16,48.54,10.49,24.37,3.89,30.21-6,55.71-4.34,12.49.8,20.25,11,27,13.57,12.87,4.86,24.41-1.84,30.25-3Z" transform="translate(0 0)"/><path class="cls-27" d="M1645,612c-5.29,7.31-16.76,23-25.71,30.29-5.27,4.3-9.53,8.61-15,12.74-1.84,1.39-5.19,3.8-7.54,5.84.88-5,2.29-11.27,3.21-16.59,1.48-8.57,12.73-88.44,13.2-92.45.23-1.92-4.87-1-5.91,3.33-5.67,23.36-20.86,142.51-32.6,144.58-5,.88-21.3-60.54-29-104.89,3.33-4,8-12.72,11.46-18.8,5.28-9.34,10.54-25.24,12.73-34.57,1.94-8.28,8.36-32.28,9.09-36.74.59-3.54-2-7.23-2.82-4.88-1,3-6.23,22.05-8.93,31.88-2-5.11-14.59-31.55-16.2-34.07-2.63-4.13-5.29-4.9-2.88.3,2.19,4.76,14.58,34.29,16.75,38.75.22.45.4.72.57,1.07-1.67,5.81-3.22,11.2-4.61,14.77a142.12,142.12,0,0,1-17.25,32.25c-3.33-19.49-8-41.51-10.56-53.13-1.74-7.73-9.76-11.66-9.32-7.52.81,7.48,14.3,93.84,17.63,107.72,4,16.88,6.33,30.76,9.29,50.15,5.72,37.4,6.15,81,5.29,120.57-.47,21.94-1.08,114.44-1.08,134.1,0,3.34,1.08,5,3.62,5h25.1c2.66,0,3.75-.54,3.78-3.73.11-9.54-4-125.57-4.24-174-.07-18.44,3-38.77,6.42-59.55,2-12.21,3.92-22.95,5.92-34.22.52-.51,1.26-1.19,1.86-1.75,5.64-5.27,10.84-10.59,16.82-15.56a149.35,149.35,0,0,0,16.44-15.66c5.39-6,15-19.19,18.4-26.48C1650.25,607.94,1648,607.81,1645,612Z" transform="translate(0 0)"/><path class="cls-29" d="M1702.15,828.18c-38.26-2.55-75.48,10-122.88,33.66-56.16,28-100.4-26.5-190.25-4.52-49.07,12-75.73,53.18-210,27.64-107.79-20.51-179.25,32.61-196.44,55.36h719.56Z" transform="translate(0 0)"/><path class="cls-29" d="M0,941.69H666.74c-14.68-32.18-114-98.37-231.44-78.3-101.81,17.41-124-22.11-165.86-39.08-76.72-31.08-114.49,46-162.44,6.4-30.22-25-67.07-46.9-107-43.88Z" transform="translate(0 0)"/><path class="cls-28" d="M854.45,941.69H577.09c1.27-60.6,22.75-21.7,22.75-21.7s8.29-44.29,21.36-46.08c12.35-1.7,16.8,34.94,16.8,34.94s23-65.11,40.8-67.6c15.58-2.18,4.5,69.33,4.5,69.33s11.87-11.19,25-11.66c14.61-.54,13.11,16.43,13.11,16.43s14.29-24.83,26.28-24.3c15,.66,8.66,25.87,8.66,25.87s37.7-23.64,49.37-22.92c16.21,1-1.94,35.4-1.94,35.4s13.47-8.28,43.87-9.55C875,918.7,874.35,929.92,854.45,941.69Z" transform="translate(0 0)"/><g class="cls-30"><path class="cls-25" d="M1702.15,876.47c-38.45-10.5-63.74-4.88-103.76,11-47.43,18.86-84.78-17.84-160.65-3-41.44,8.08-64,35.79-177.32,18.6-91-13.8-151.36,22-165.87,37.26h607.6Z" transform="translate(0 0)"/></g><path class="cls-28" d="M1334.74,941.69H1598c-1.49-80.57-22.68-28.85-22.68-28.85s-7-58.88-22.38-61.27c-14.55-2.26-22.15,43.31-22.15,43.31s-16.32-62.27-37.26-65.58c-18.36-2.9-2.66,70.44-2.66,70.44s-11.77-13.65-27.24-14.29c-17.22-.7-9.19,21.22-9.19,21.22s-21.52-37.25-35.65-36.55c-17.72.88-5.53,38.64-5.53,38.64s-13-12.44-26.69-14.19c-26.73-3.43,1.66,30.78,1.66,30.78s-19-7.77-51.68-12.7C1304.66,907.83,1311.3,926,1334.74,941.69Z" transform="translate(0 0)"/><path class="cls-28" d="M1605.94,941.69c6.74-16.84,13.73-29.13,19.44-27.76s7.17,12.58,6.55,27.76Z" transform="translate(0 0)"/><path class="cls-28" d="M1643.07,941.69c9.87-6.44,20.4-12.94,29.49-13.87,9.36-1,11.37,6.29,12.42,13.87Z" transform="translate(0 0)"/><g class="cls-31"><path class="cls-25" d="M0,941.69H530.26C517.85,918,433.87,869.18,334.63,884c-86.06,12.84-104.79-16.29-140.21-28.8-64.85-22.92-84.54,37.16-137.31,4.71C39.5,849.05,20.53,837.51,0,831.52Z" transform="translate(0 0)"/></g><path class="cls-28" d="M331.35,941.69c9.3-23.23,18.93-40.19,26.81-38.3s9.89,17.36,9,38.3Z" transform="translate(0 0)"/><path class="cls-28" d="M382.75,941.69c13.62-8.88,28.14-17.85,40.68-19.13,12.92-1.31,15.69,8.67,17.14,19.13Z" transform="translate(0 0)"/><path class="cls-28" d="M0,909.35v32.34H321.52c-2.06-111.14-31.29-39.8-31.29-39.8s-9.61-81.22-30.86-84.51c-20.07-3.11-30.56,59.74-30.56,59.74s-22.51-85.89-51.39-90.45c-25.32-4-3.68,97.16-3.68,97.16s-17-17.18-38.31-18.06c-23.76-1-11.94,27.61-11.94,27.61S93.81,842,74.32,843c-24.44,1.21-7.62,53.3-7.62,53.3s-18-17.16-36.82-19.58C-7,872,32.17,919.16,32.17,919.16S20.75,914.48,0,909.35Z" transform="translate(0 0)"/><polygon class="cls-32" points="472.5 941.68 478.82 941.68 478.82 855.78 467.79 855.78 472.5 941.68"/><polygon class="cls-32" points="425.73 941.68 431.95 941.68 444.2 855.78 432.86 855.78 425.73 941.68"/><polygon class="cls-32" points="426.69 782.16 431.88 782.16 444.2 855.78 432.86 855.78 426.69 782.16"/><rect class="cls-32" x="431.57" y="855.78" width="47.25" height="15.96" transform="translate(910.39 1727.53) rotate(180)"/><rect class="cls-32" x="420.12" y="855.78" width="34.62" height="15.96" transform="translate(874.86 1727.53) rotate(180)"/><rect class="cls-32" x="454.74" y="855.78" width="238.77" height="15.96" transform="translate(1148.25 1727.53) rotate(180)"/><polygon class="cls-32" points="652.95 798.15 414.18 798.15 411.79 782.16 650.57 782.16 652.95 798.15"/><polygon class="cls-32" points="656.61 822.69 417.84 822.69 415.45 806.7 654.23 806.7 656.61 822.69"/><polygon class="cls-32" points="676.5 941.68 682.81 941.68 682.81 855.78 671.78 855.78 676.5 941.68"/><polygon class="cls-32" points="629.73 941.68 635.94 941.68 648.2 855.78 636.85 855.78 629.73 941.68"/><polygon class="cls-32" points="630.68 782.16 635.87 782.16 648.2 855.78 636.85 855.78 630.68 782.16"/><path class="cls-33" d="M1641.8,359.08c-11-11.25-35.29-32.25-58.38-32.5-15.86-.17-26.58,4.09-40.75,3.38-17.85-.89-27.5-8.38-46.66-10.13-21.83-2-36.67,5.67-44.5,18.84-6.76,11.36-8.56,23.4-8.78,36.57-.24,14.35.1,17-14.2,21.84-8.58,2.93-19.77,4.84-23.86,18.92-2,6.89-1.91,12.29-3.87,18.63-2.32,7.5-6.21,9.62-11.19,15.18-5.51,6.14-10.8,16.1-6.48,24.53,5.1,9.92,18.9,8.94,27.23,4.71,10-5.05,13.5-13.27,23.48-18.38,13.24-6.79,24.5-3.19,37.08-10.34,19.58-11.11,3.59-39,31.5-51.5,11.54-5.16,28.95-1.87,40.27-6.73,12.4-5.32,10.65-16.9,26.88-18,15.94-1.09,18,11.69,36.36,11.56,11.29-.09,13.58-7.32,30.61-8.14C1648.68,376.92,1649.55,367,1641.8,359.08Z" transform="translate(0 0)"/></svg>