<?xml version="1.0" encoding="UTF-8"?>
<svg width="34px" height="40px" viewBox="0 0 34 40" version="1.1" xmlns="http://www.w3.org/2000/svg" xmlns:xlink="http://www.w3.org/1999/xlink">
    <!-- Generator: Sketch 59.1 (86144) - https://sketch.com -->
    <title>Timer</title>
    <desc>Created with Sketch.</desc>
    <g id="Symbols" stroke="none" stroke-width="1" fill="none" fill-rule="evenodd">
        <g id="Bottom-bar" transform="translate(-171.000000, -14.000000)" fill-rule="nonzero">
            <g id="iPhone-X/Bars/Tab-Bar/3-Items">
                <g id="Timer" transform="translate(171.000000, 14.000000)">
                    <path d="M30.15545,11.6104348 L32.65275,9.05565217 C33.3166,8.37652174 33.3166,7.27565217 32.65275,6.59652174 C31.9889,5.9173913 30.9128,5.9173913 30.24895,6.59652174 L27.75165,9.15130435 C25.23225,7.04086957 22.11445,5.65478261 18.70085,5.30608696 L18.70085,3.47826087 L20.40085,3.47826087 C21.33925,3.47826087 22.10085,2.69913043 22.10085,1.73913043 C22.10085,0.779130435 21.33925,0 20.40085,0 L13.60085,0 C12.66245,0 11.90085,0.779130435 11.90085,1.73913043 C11.90085,2.69913043 12.66245,3.47826087 13.60085,3.47826087 L15.30085,3.47826087 L15.30085,5.30608696 C6.7218,6.18086957 0,13.606087 0,22.6086957 C0,32.1982609 7.6262,40 17,40 C26.3738,40 34,32.1982609 34,22.6086957 C34,18.4391304 32.55585,14.6095652 30.15545,11.6104348 Z M17,36.5217391 C9.5013,36.5217391 3.4,30.28 3.4,22.6086957 C3.4,14.9373913 9.5013,8.69565217 17,8.69565217 C24.4987,8.69565217 30.6,14.9373913 30.6,22.6086957 C30.6,30.28 24.4987,36.5217391 17,36.5217391 Z" id="Shape" fill="#CC6C4E"></path>
                    <path d="M22.4098589,21.3508772 L19.1802823,21.3508772 L19.1802823,13.8245614 C19.1802823,12.8174035 18.467899,12 17.5901411,12 C16.7123832,12 16,12.8174035 16,13.8245614 L16,23.1754386 C16,24.1825965 16.7123832,25 17.5901411,25 L22.4098589,25 C23.2876168,25 24,24.1825965 24,23.1754386 C24,22.1682807 23.2884118,21.3508772 22.4098589,21.3508772 Z" id="Path" fill="#757576"></path>
                </g>
            </g>
        </g>
    </g>
</svg>