<?xml version="1.0" encoding="UTF-8"?>
<svg width="305px" height="400px" viewBox="0 0 305 400" version="1.1" xmlns="http://www.w3.org/2000/svg" xmlns:xlink="http://www.w3.org/1999/xlink">
    <!-- Generator: Sketch 59.1 (86144) - https://sketch.com -->
    <title>Asset 1</title>
    <desc>Created with Sketch.</desc>
    <g id="wireframes" stroke="none" stroke-width="1" fill="none" fill-rule="evenodd" opacity="0.4">
        <g id="Onboarding-/-Setting_goals-/-Daily" transform="translate(-70.000000, -412.000000)" fill-rule="nonzero">
            <g id="Group-2" transform="translate(222.500000, 613.500000) scale(-1, 1) translate(-222.500000, -613.500000) translate(70.000000, 412.000000)">
                <g id="Asset-1" transform="translate(152.500000, 201.500000) scale(-1, 1) translate(-152.500000, -201.500000) ">
                    <path d="M305,60.7101765 C292.927473,52.6300254 279.109752,42.952278 257.95646,30.9165397 C218.641638,8.56555147 173.573428,-5.42109784 122.646351,2.0061893 C89.2958757,6.94491281 57.3262136,18.3815525 65.7836947,45.0107195 C76.7151328,79.5817841 34.044168,79.6355493 14.7894945,99.8820115 C-6.50763199,122.271403 -3.0939548,159.154374 14.1662107,183.287297 C32.6058209,208.994774 83.5808431,234.164598 133.884637,230.71594 C245.835988,223.035188 266.212572,247.152749 305,242.406045 L305,60.7101765 Z" id="Path" fill="#9B9A30"></path>
                    <path d="M236.471781,194.010467 C232.022922,198.722022 226.707838,204.408774 219.17253,209.120329 C214.740491,211.892833 211.603582,213.899922 207.020164,216.5647 C205.472734,217.466189 202.655404,219.019699 200.670657,220.335079 C201.419142,217.126005 202.167627,213.843224 202.941342,210.407361 C204.194423,204.873692 212.579135,158.56324 212.982813,155.977837 C213.176241,154.741834 208.508723,155.348496 207.297692,158.052963 C200.628607,172.981394 192.91669,239.447779 182.908859,239.980735 C172.472121,240.547709 163.78465,207.096231 157.292175,178.503722 C160.092686,175.889971 164.020129,170.293936 166.929969,166.364805 C171.362008,160.337869 175.794048,150.075636 177.635825,144.05437 C179.267354,138.713473 182.589281,128.712048 183.203207,125.831819 C183.699394,123.563922 181.521219,121.159952 180.831603,122.679443 C179.990609,124.601485 177.938583,130.736146 175.667899,137.080587 C173.98591,133.786467 168.21669,125.089083 166.871099,123.473206 C164.659284,120.802758 162.144712,120.995529 164.163098,124.357686 C166.013285,127.425017 171.614307,138.11248 173.414034,140.992709 C173.565696,141.237642 173.754522,141.471345 173.9775,141.690087 C172.58145,145.443457 171.1854,148.913339 170.016418,151.215254 C164.709744,161.670258 159.394661,167.821928 155.719516,171.74539 C152.919005,159.169902 150.581041,148.2273 148.747674,142.591576 C147.132965,137.619213 139.774265,137.267689 140.152713,139.943807 C140.825508,144.774427 148.327176,193.040941 151.245426,202.475391 C154.609403,213.344287 155.845665,222.665343 159.882437,234.991362 C168.048491,259.972245 166.610391,287.084951 165.853496,312.60446 C165.449819,326.778815 162.573619,385.177158 163.128675,397.849031 C163.254824,400.802967 164.667694,402.350806 169.082914,402.350806 L191.377671,402.350806 C193.614716,402.350806 194.951896,401.976603 195.683561,399.946836 C198.097215,393.279219 188.871508,318.903544 188.711719,287.685944 C188.64444,275.779486 191.234702,262.665373 194.102492,249.250763 C195.784481,241.369822 197.466469,234.237286 199.148458,226.963007 C199.693749,226.684581 200.200424,226.373358 200.662247,226.03317 C205.405455,222.631324 209.787035,219.195461 214.80777,215.986387 C219.788179,212.858722 224.410047,209.481235 228.633715,205.882906 C233.22271,202.040629 236.977527,197.777738 239.785299,193.222373 C240.912231,191.362697 239.045224,191.283321 236.471781,194.010467 Z" id="Path" fill="#873A1F"></path>
                </g>
            </g>
        </g>
    </g>
</svg>