<?xml version="1.0" encoding="UTF-8"?>
<svg width="354px" height="496px" viewBox="0 0 354 496" version="1.1" xmlns="http://www.w3.org/2000/svg" xmlns:xlink="http://www.w3.org/1999/xlink">
    <!-- Generator: Sketch 59.1 (86144) - https://sketch.com -->
    <title>Asset 1</title>
    <desc>Created with Sketch.</desc>
    <g id="wireframes" stroke="none" stroke-width="1" fill="none" fill-rule="evenodd" opacity="0.198428199">
        <g id="Tracking-/-Record_mood" transform="translate(0.000000, -315.000000)" fill-rule="nonzero">
            <g id="Group-2" transform="translate(-21.000000, 315.000000)">
                <g id="Asset-1" transform="translate(187.500000, 248.000000) scale(-1, 1) translate(-187.500000, -248.000000) ">
                    <path d="M375,74.7202172 C360.156729,64.7754159 343.167727,52.8643421 317.159582,38.0511257 C268.821687,10.5422172 213.409953,-6.67212042 150.794694,2.46915607 C109.790011,8.547585 70.4830494,22.6234492 80.8815918,55.3978086 C94.3218846,97.9468112 41.8575837,98.0129838 18.1838047,122.931706 C-8.00118687,150.487881 -3.80404279,195.882307 17.4174722,225.584366 C40.0891241,257.224337 102.763332,288.202582 164.612258,283.95808 C302.257362,274.504847 327.31054,304.187999 375,298.345901 L375,74.7202172 Z" id="Path" fill="#49773A"></path>
                    <path d="M290.743993,238.782113 C285.274084,244.580951 278.739146,251.580029 269.474422,257.378867 C264.025193,260.791179 260.168339,263.261442 254.532988,266.54117 C252.630411,267.650695 249.16648,269.562706 246.726218,271.181635 C247.646486,267.232006 248.566754,263.191661 249.518043,258.962905 C251.058717,252.152237 261.367789,195.154757 261.864114,191.972723 C262.101936,190.451487 256.363184,191.198149 254.874211,194.526724 C246.674517,212.900177 237.192652,294.704959 224.887941,295.360904 C212.055886,296.058719 201.37457,254.887669 193.392018,219.696889 C196.835269,216.479965 201.664093,209.592536 205.241765,204.756683 C210.690994,197.338916 216.140223,184.708475 218.404703,177.297686 C220.410681,170.724274 224.495018,158.414828 225.249845,154.869931 C225.85991,152.078674 223.181826,149.119941 222.333939,150.990083 C221.299929,153.355674 218.776947,160.906026 215.985121,168.714569 C213.917103,164.660267 206.823799,153.955794 205.169384,151.967023 C202.44994,148.680317 199.358252,148.917574 201.839874,153.055614 C204.114695,156.83079 211.001197,169.984591 213.213977,173.529488 C213.400445,173.830944 213.632609,174.118578 213.906763,174.3878 C212.190307,179.007331 210.473852,183.277955 209.036579,186.111082 C202.51198,198.978779 195.977042,206.550066 191.458421,211.378941 C188.01517,195.901418 185.140624,182.4336 182.886484,175.497325 C180.901186,169.377493 171.853605,168.944848 172.318909,172.238532 C173.146116,178.18391 182.369479,237.58885 185.957492,249.200482 C190.093529,262.577584 191.613522,274.049653 196.576767,289.220138 C206.616997,319.96584 204.848841,353.335325 203.918233,384.743951 C203.421909,402.189311 199.885597,474.064194 200.568043,489.660346 C200.723144,493.295959 202.46028,495.200992 207.888829,495.200992 L235.300415,495.200992 C238.05088,495.200992 239.694955,494.740435 240.594543,492.242259 C243.562149,484.035962 232.219067,392.496669 232.022606,354.075008 C231.939885,339.420906 235.124633,323.280459 238.650605,306.77017 C240.718624,297.07055 242.786642,288.292045 244.854661,279.339086 C245.525101,278.996407 246.148063,278.613364 246.715878,278.19467 C252.54769,274.007784 257.934879,269.779029 264.107914,265.829399 C270.231367,261.979966 275.913992,257.823059 281.107027,253.394346 C286.749234,248.66539 291.365811,243.418755 294.81799,237.812151 C296.203563,235.52332 293.908062,235.425626 290.743993,238.782113 Z" id="Path" fill="#873A1F"></path>
                </g>
            </g>
        </g>
    </g>
</svg>